<svg width="27" height="27" viewBox="0 0 27 27" fill="none" xmlns="http://www.w3.org/2000/svg">
<path d="M10.8961 5.81328L11.1492 4.86406C13.1883 4.66719 14.932 4.38594 16.3805 4.02031C16.0289 5.00469 15.6492 6.29141 15.2414 7.88047L13.6805 13.8078L15.6211 13.9344C16.5211 13.9766 17.4984 13.7516 18.5531 13.2594C19.6219 12.7672 20.5711 11.9023 21.4008 10.6648C22.2445 9.42734 22.6664 8.09141 22.6664 6.65703C22.6664 5.23672 22.1531 4.11172 21.1266 3.28203C20.1141 2.45234 18.5602 2.0375 16.4648 2.0375C14.0742 2.0375 11.7328 2.63516 9.44063 3.83047C7.14844 5.01172 5.37656 6.53047 4.125 8.38672C2.8875 10.2289 2.26875 12.05 2.26875 13.85C2.26875 14.7359 2.43047 15.5094 2.75391 16.1703C3.07734 16.8172 3.65391 17.457 4.48359 18.0898C5.17266 18.5961 5.51719 19.0883 5.51719 19.5664C5.51719 19.8758 5.40469 20.1359 5.17969 20.3469C4.95469 20.5578 4.6875 20.6633 4.37813 20.6633C3.54844 20.6633 2.74688 20.0937 1.97344 18.9547C1.2 17.8156 0.813282 16.3742 0.813282 14.6305C0.813282 11.4383 2.03672 8.52734 4.48359 5.89766C7.68984 2.43828 11.993 0.708593 17.393 0.708593C19.4461 0.708593 21.1266 0.975781 22.4344 1.51016C23.7563 2.04453 24.7406 2.77578 25.3875 3.70391C26.0484 4.63203 26.3789 5.6375 26.3789 6.72031C26.3789 8.09844 25.9148 9.45547 24.9867 10.7914C24.0727 12.1133 22.7156 13.182 20.9156 13.9977C19.1297 14.8133 17.1398 15.2211 14.9461 15.2211C14.6086 15.2211 14.0813 15.2 13.3641 15.1578L11.6977 21.718C11.4164 22.8289 11.1 23.9258 10.7484 25.0086C11.8453 25.2758 12.8016 25.4094 13.6172 25.4094C14.6438 25.4094 15.7477 25.2125 16.9289 24.8187L16.6758 26C15.5789 26.2953 14.6508 26.443 13.8914 26.443C13.1602 26.443 12.0914 26.3656 10.6852 26.2109C9.56016 26.0703 8.64609 26 7.94297 26C6.57891 26 5.17969 26.1617 3.74531 26.4852L3.99844 25.3672C5.46094 25.1281 6.45938 24.7836 6.99375 24.3336C7.75313 23.7008 8.37188 22.4281 8.85 20.5156L12.0352 7.88047C12.1758 7.28984 12.2461 6.875 12.2461 6.63594C12.2461 6.41094 12.1547 6.21406 11.9719 6.04531C11.7891 5.8625 11.5711 5.77109 11.318 5.77109C11.2195 5.77109 11.0789 5.78516 10.8961 5.81328Z" fill="black"/>
</svg>
